<?xml version="1.0" encoding="UTF-8"?>
<svg version="1.1" viewBox="0 0 800 800" xmlns="http://www.w3.org/2000/svg">
  <defs>
    <radialGradient id="g">
      <stop offset="80%" stop-color="orange" />
      <stop offset="98%" stop-color="transparent" />
    </radialGradient>
  </defs>
  <rect x="10" y="10" rx="15" ry="15" width="100%" height="100%" fill="url(#g)"/>
  <g>
    <path d="m329 511s16 42 17 72-13 84-7 110c6 27 73 61 103 61s61-4 76-49c15-45 21-102-2-151-23-49-46-95-46-95l-144 14z" fill="#532900" fill-rule="evenodd"/>
    <path d="m329 479c0 23 7 44 14 65 11 33 5 68 0 101-2 22-9 50 12 66 32 25 74 46 116 36 31-6 44-39 50-66 12-47 8-99-18-141-12-25-24-49-36-74-46 4-92 9-138 13z" fill="#a66524" fill-rule="evenodd"/>
    <path d="m331 478c0 22 6 43 12 65 10 33 5 67 0 100-2 22-8 50 11 65 28 25 66 46 104 35 28-6 39-39 44-66 11-46 7-98-16-139-11-24-22-49-33-73-41 4-82 9-123 13z" fill="#e59f59" fill-rule="evenodd"/>
    <path d="m348 482c0 22 6 42 12 63 9 32 4 66 0 98-2 21-10 54 8 69 26 24 62 46 98 36 26-6 38-45 43-71 10-45 6-96-15-136-10-24-20-48-30-71l-115 13z" fill="#ce8842" fill-rule="evenodd"/>
  
    <path d="m633 318c-1.7 55-17 109-53 145-52 52-127 73-208 73-101 0-208-69-237-118-29-49-18-115-14-143 16-106 107-195 251-200 144-6 266 113 262 243z" fill="#532900"/>
    <path d="m376 80c-84 1-172 37-219 110-32 49-40 110-37 167 3 35 19 70 47 92 64 55 149 89 233 80 70-5 144-31 188-89 31-46 39-104 33-157-16-110-121-199-232-202-5-0-9-0-14-0z" fill="#a81c00"/>
    <path d="m343 90c-72 1-148 35-188 105-28 47-35 105-31 161 2 34 17 67 41 88 55 53 128 85 200 77 60-5 124-30 161-86 26-44 34-100 28-151-14-106-104-191-200-194-4-0-8-0-12-0z" fill="#f52a00"/>
    <path d="m373 81c-76 1-155 36-198 107-29 48-37 107-33 163 2 35 20 86 46 108 58 53 132 69 208 60 64-5 131-30 170-87 28-45 36-102 30-154-14-108-109-194-210-197-4-0-8-0-13-0z" fill="#d12300"/>
    
    <path d="m317 386s-37-8-46 12c-10 20 15 41 36 46s46 2 55-8c9-11 16-25 13-34-3-9-58-16-58-16z" fill="#111" fill-rule="evenodd"/>
    <path d="m315 379s-37-8-46 12c-10 20 15 41 36 46s46 2 55-8c9-11 16-25 13-34-3-9-58-16-58-16z" fill="#5a1414" fill-rule="evenodd"/>
    <path d="m314 383s-26-4-33 5c-7 9 11 19 26 22 15 2 33 1 39-4 7-5 11-12 9-16-2-4-41-7-41-7z" fill="#b63939" fill-rule="evenodd"/>

    <path d="m487 431c-2 4-4 8-7 11-7 9-17 16-27 21-18 10-38 18-59 23-10 2-20 4-30 5-15 2-30 2-45 0-29-2-57-9-83-22-14-8-28-17-41-27-2-1-3-2-5-4l0-1c3-0 7 3 9 5 14 9 28 18 44 25 40 16 85 20 127 15 26-3 52-10 76-22 15-7 27-15 38-28z" fill="#000"/>

    <g transform="matrix(5.4667 0 0 5.4667 -1248.9 -3012.6)">
      <circle cx="274" cy="600" r="20" fill="#532900"/>
      <circle cx="274" cy="600" r="19" fill="#fff"/>
      <circle cx="274" cy="602" r="15" fill="#371b00"/>
      <circle cx="274" cy="603" r="12" fill="#110800"/>
      <circle transform="matrix(1.08 0 0 1.08 -20.2 -46.1)" cx="264.7" cy="594.3" r="7.2" fill="#ffd2ad" filter="url(#a)" opacity=".3"/>
      <circle cx="315" cy="609" r="20" fill="#532900"/>
      <circle cx="315" cy="609" r="19" fill="#fff"/>
      <circle cx="315" cy="611" r="15" fill="#371b00"/>
      <circle cx="315" cy="613" r="12" fill="#110800"/>
      <circle transform="matrix(1.1 0 0 1.1 -29.2 -61.8)" cx="304.6" cy="605.4" r="7.2" fill="#ffdda8" filter="url(#a)" opacity=".3"/>
    </g>
    <animateTransform begin="c.end" id="p" dur="2s" type="translate" attributeType="XML" attributeName="transform"/>
    <animateMotion id="c" path="m 50, 0 a 50,50 0 1,0 -100,0 a 50,50 0 1,0 100,0" begin="0; p.end" dur=".25s" fill="freeze" repeatCount="2" />
  </g>
</svg>
