<svg xmlns="http://www.w3.org/2000/svg" viewBox="0 0 800 800" xmlns:v="https://vecta.io/nano"><style><![CDATA[.B{fill-rule:evenodd}.C{fill:#532900}]]></style><defs><radialGradient id="A"><stop offset="80%" stop-color="orange"/><stop offset="100%"/></radialGradient></defs><rect x="10" y="10" rx="15" width="100%" height="100%" fill="url(#A)"/><g><path d="M329 511s16 42 17 72-13 84-7 110c6 27 73 61 103 61s61-4 76-49 21-102-2-151l-46-95-144 14z" class="B C"/><path d="M329 479c0 23 7 44 14 65 11 33 5 68 0 101-2 22-9 50 12 66 32 25 74 46 116 36 31-6 44-39 50-66 12-47 8-99-18-141l-36-74-138 13z" fill="#a66524" class="B"/><path d="M331 478c0 22 6 43 12 65 10 33 5 67 0 100-2 22-8 50 11 65 28 25 66 46 104 35 28-6 39-39 44-66 11-46 7-98-16-139l-33-73-123 13z" fill="#e59f59" class="B"/><path d="M348 482c0 22 6 42 12 63 9 32 4 66 0 98-2 21-10 54 8 69 26 24 62 46 98 36 26-6 38-45 43-71 10-45 6-96-15-136l-30-71-115 13z" fill="#ce8842" class="B"/><path d="M633 318c-1.7 55-17 109-53 145-52 52-127 73-208 73-101 0-208-69-237-118s-18-115-14-143C137 169 228 80 372 75c144-6 266 113 262 243z" class="C"/><path d="M376 80c-84 1-172 37-219 110-32 49-40 110-37 167 3 35 19 70 47 92 64 55 149 89 233 80 70-5 144-31 188-89 31-46 39-104 33-157C605 173 500 84 389 81h-14z" fill="#a81c00"/><path d="M343 90c-72 1-148 35-188 105-28 47-35 105-31 161 2 34 17 67 41 88 55 53 128 85 200 77 60-5 124-30 161-86 26-44 34-100 28-151C540 178 450 93 354 90h-12z" fill="#f52a00"/><path d="M373 81c-76 1-155 36-198 107-29 48-37 107-33 163 2 35 20 86 46 108 58 53 132 69 208 60 64-5 131-30 170-87 28-45 36-102 30-154C582 170 487 84 386 81h-13z" fill="#d12300"/><path d="M317 386s-37-8-46 12c-10 20 15 41 36 46s46 2 55-8c9-11 16-25 13-34s-58-16-58-16z" fill="#111" class="B"/><path d="M315 379s-37-8-46 12c-10 20 15 41 36 46s46 2 55-8c9-11 16-25 13-34s-58-16-58-16z" fill="#5a1414" class="B"/><path d="M314 383s-26-4-33 5 11 19 26 22c15 2 33 1 39-4 7-5 11-12 9-16s-41-7-41-7z" fill="#b63939" class="B"/><path d="m487 431c-2 4-4 8-7 11-7 9-17 16-27 21-18 10-38 18-59 23-10 2-20 4-30 5-15 2-30 2-45 0-29-2-57-9-83-22-14-8-28-17-41-27-2-1-3-2-5-4l0-1c3-0 7 3 9 5 14 9 28 18 44 25 40 16 85 20 127 15 26-3 52-10 76-22 15-7 27-15 38-28z"/><g transform="matrix(5.4667 0 0 5.4667 -1248.9 -3012.6)"><circle cx="274" cy="600" r="20" class="C"/><circle cx="274" cy="600" r="19" fill="#fff"/><circle cx="274" cy="602" r="15" fill="#371b00"/><circle cx="274" cy="603" r="12" fill="#110800"/><circle transform="matrix(1.08 0 0 1.08 -20.2 -46.1)" cx="264.7" cy="594.3" r="7.2" fill="#ffd2ad" filter="url(#a)" opacity=".3"/><circle cx="315" cy="609" r="20" class="C"/><circle cx="315" cy="609" r="19" fill="#fff"/><circle cx="315" cy="611" r="15" fill="#371b00"/><circle cx="315" cy="613" r="12" fill="#110800"/><circle transform="matrix(1.1 0 0 1.1 -29.2 -61.8)" cx="304.6" cy="605.4" r="7.2" fill="#ffdda8" filter="url(#a)" opacity=".3"/></g><animateTransform begin="C.end" id="B" dur="2s" type="translate" attributeType="XML" attributeName="transform"/><animateMotion id="C" path="m 50, 0 a 50,50 0 1,0 -100,0 a 50,50 0 1,0 100,0" begin="0; B.end" dur=".25s" fill="freeze" repeatCount="2"/></g></svg>